HIERARCHY
ROOT root
{
	OFFSET	0	13.1	24.9
	CHANNELS 6  Xposition Yposition Zposition Xrotation Yrotation Zrotation
	JOINT spine_1
	{
		OFFSET	0	9.99999	0
		CHANNELS 3  Xrotation Yrotation Zrotation
		JOINT spine_2
		{
			OFFSET	0	112	-10
			CHANNELS 3  Xrotation Yrotation Zrotation
			JOINT spine_3
			{
				OFFSET	0	206.5	19.3
				CHANNELS 3  Xrotation Yrotation Zrotation
				JOINT spine_4
				{
					OFFSET	0	110.4	14.6
					CHANNELS 3  Xrotation Yrotation Zrotation
					JOINT neck_1
					{
						OFFSET	0	71.8	-50.3
						CHANNELS 3  Xrotation Yrotation Zrotation
						JOINT neck_2
						{
							OFFSET	0	86.2	-25.8
							CHANNELS 3  Xrotation Yrotation Zrotation
							JOINT head_ee
							{
								OFFSET	0	179.8	-8.7
								CHANNELS 3  Xrotation Yrotation Zrotation
								End Site
								{
									OFFSET	1	0	0
								}
							}
						}
					}
					JOINT left_clavicle
					{
						OFFSET	-43.2	22.4	-70.8
						CHANNELS 3  Xrotation Yrotation Zrotation
						JOINT left_shoulder
						{
							OFFSET	-93.9	-5.79999	48.7
							CHANNELS 3  Xrotation Yrotation Zrotation
							JOINT left_elbow
							{
								OFFSET	-291.4	-30.8	15.2
								CHANNELS 3  Xrotation Yrotation Zrotation
								JOINT left_lowarm_twist
								{
									OFFSET	-110.7	-3.89999	13.6
									CHANNELS 3  Xrotation Yrotation Zrotation
									JOINT left_hand
									{
										OFFSET	-110.7	-3.89999	13.6
										CHANNELS 3  Xrotation Yrotation Zrotation
										JOINT left_ee
										{
											OFFSET	-80.8	-5.10001	12.1
											CHANNELS 3  Xrotation Yrotation Zrotation
											End Site
											{
												OFFSET	1	0	0
											}
										}
									}
								}
							}
						}
					}
					JOINT right_clavicle
					{
						OFFSET	43.2	22.4	-70.8
						CHANNELS 3  Xrotation Yrotation Zrotation
						JOINT right_shoulder
						{
							OFFSET	93.9	-5.79999	48.7
							CHANNELS 3  Xrotation Yrotation Zrotation
							JOINT right_elbow
							{
								OFFSET	291.4	-30.8	15.2
								CHANNELS 3  Xrotation Yrotation Zrotation
								JOINT right_lowarm_twist
								{
									OFFSET	110.7	-3.89999	13.6
									CHANNELS 3  Xrotation Yrotation Zrotation
									JOINT right_hand
									{
										OFFSET	110.7	-3.89999	13.6
										CHANNELS 3  Xrotation Yrotation Zrotation
										JOINT right_ee
										{
											OFFSET	80.8	-5.10001	12.1
											CHANNELS 3  Xrotation Yrotation Zrotation
											End Site
											{
												OFFSET	1	0	0
											}
										}
									}
								}
							}
						}
					}
				}
			}
		}
	}
	JOINT left_hip
	{
		OFFSET	-82.8	-127.5	0.300001
		CHANNELS 3  Xrotation Yrotation Zrotation
		JOINT left_knee
		{
			OFFSET	-28.2	-396.7	2.2
			CHANNELS 3  Xrotation Yrotation Zrotation
			JOINT left_ankle
			{
				OFFSET	-11.7	-411.3	35.4
				CHANNELS 3  Xrotation Yrotation Zrotation
				JOINT left_toes
				{
					OFFSET	0	-60	-88.6
					CHANNELS 3  Xrotation Yrotation Zrotation
					JOINT left_foot_ee
					{
						OFFSET	-22.5	-16.5	-42.2
						CHANNELS 3  Xrotation Yrotation Zrotation
						End Site
						{
							OFFSET	1	0	0
						}
					}
				}
			}
		}
	}
	JOINT right_hip
	{
		OFFSET	82.8	-127.5	0.300001
		CHANNELS 3  Xrotation Yrotation Zrotation
		JOINT right_knee
		{
			OFFSET	28.2	-396.7	2.2
			CHANNELS 3  Xrotation Yrotation Zrotation
			JOINT right_ankle
			{
				OFFSET	11.7	-411.3	35.4
				CHANNELS 3  Xrotation Yrotation Zrotation
				JOINT right_toes
				{
					OFFSET	0	-60	-88.6
					CHANNELS 3  Xrotation Yrotation Zrotation
					JOINT right_foot_ee
					{
						OFFSET	22.5	-16.5	-42.2
						CHANNELS 3  Xrotation Yrotation Zrotation
						End Site
						{
							OFFSET	1	0	0
						}
					}
				}
			}
		}
	}
}
MOTION
Frames: 13
Frame Time: 0.02
1372.05 701.618 -1475.22 -2.23885971742 18.4378013067 -3.63174953525 1.58599 0.681757 2.02983 1.58812 0.55124 2.06907 1.60846 0.164254 2.13491 1.60245 0.499288 2.08221 -0.76653 4.45623 -3.83494 -0.619432 11.0787 -3.58819 -0.0 0.0 -0.0 7.58896 -17.2548 14.266 26.9411 16.5352 48.6639 1.57614 -37.9791 0.542417 -3.5678 -0.139291 0.434175 6.98824 -26.012 35.8869 -0.0 0.0 -0.0 8.18235 -6.81681 -15.7048 -21.2722 -8.46809 -66.3635 0.235428 6.65219 -0.0136824 22.6372 -0.234685 2.86342 1.95725 15.0643 -6.7409 0.0 0.0 0.0 -10.6787 30.413 1.12489 -19.9146 0.296646 3.02629 27.6659 -19.8062 -4.04665 6.66459 -0.0 -0.0 -0.0 0.0 -0.0 33.2401 0.129704 3.93508 -9.86744 -0.278819 -1.4868 5.28198 -1.43288 0.767491 -10.8342 0.0 0.0 0.0 0.0 0.0 
1365.22233432 699.688 -1509.92834311 -3.13552685568 19.9901484858 -3.17436906087 1.77949 0.40106 2.0157 1.78171 0.27201 2.03712 1.79152 -0.098072 2.05285 1.78571 0.227299 2.04259 1.56098 5.70005 -4.2155 1.81859 13.563 -4.15227 -0.0 0.0 -0.0 6.22756 -16.0252 11.4004 23.6285 18.7691 51.8558 1.62063 -38.755 0.570034 -3.95524 -0.15604 0.480789 7.20704 -24.2234 39.0573 -0.0 0.0 -0.0 7.87248 -7.69189 -15.0793 -22.9769 -6.44279 -67.0481 0.304092 8.56672 -0.0227761 22.6562 -0.234405 2.86583 1.98024 14.789 -7.0208 0.0 0.0 0.0 -11.3642 29.467 0.253771 -19.0225 0.305989 2.88973 25.7986 -21.4797 -3.8758 6.54919 -0.0 -0.0 -0.0 0.0 -0.0 31.9433 -0.742796 3.57054 -9.62686 -0.275084 -1.45008 6.11958 -1.76373 0.886307 -9.40894 0.0 0.0 0.0 0.0 0.0 
1360.08471164 702.475 -1530.45686427 -3.84735818178 20.6470554597 -1.87902433445 2.11924 0.349688 1.64125 2.12071 0.244557 1.66016 2.12776 -0.0475648 1.6774 2.1239 0.217909 1.66387 1.98306 5.00654 -4.6849 2.2431 12.7283 -4.77739 -0.0 0.0 -0.0 6.801 -15.269 12.6863 20.7949 19.1762 52.5158 1.58808 -38.1889 0.54978 -5.28013 -0.215696 0.639327 7.3808 -23.0666 41.4447 -0.0 0.0 -0.0 8.19089 -6.61879 -15.7314 -22.1218 -7.56253 -66.3705 0.317233 8.93107 -0.0247749 22.6157 -0.235003 2.86069 2.05085 14.6132 -7.57773 0.0 0.0 0.0 -10.1176 26.4035 -1.31674 -19.3376 0.302932 2.93799 25.3427 -20.6095 -3.78804 6.04579 -0.0 -0.0 -0.0 0.0 -0.0 30.2405 -1.67057 2.57656 -6.46015 -0.211569 -0.968345 4.56316 -0.825454 0.665354 -10.9109 0.0 0.0 0.0 0.0 0.0 
1353.84375804 707.855 -1549.09043897 -3.94048568472 20.8400453804 -1.32684218836 2.04124 0.526506 1.57039 2.04251 0.425524 1.6007 2.05447 0.138947 1.65044 2.05089 0.397826 1.60781 2.2888 2.75384 -5.35434 2.49306 9.34707 -5.72117 -0.0 0.0 -0.0 7.07184 -13.3357 13.3825 18.5385 19.8732 52.93 1.53616 -37.2675 0.51801 -5.93401 -0.246488 0.717058 7.85047 -24.3164 44.3021 -0.0 0.0 -0.0 8.59448 -5.5034 -16.5606 -19.5287 -7.38514 -65.9766 0.244737 6.91272 -0.0147818 23.1678 -0.226544 2.93071 2.07707 14.3472 -7.87579 0.0 0.0 0.0 -9.65054 23.7355 -1.74721 -20.4158 0.290464 3.10295 26.3618 -19.9777 -3.89378 5.74046 -0.0 -0.0 -0.0 0.0 -0.0 28.2585 -2.70055 1.91668 -4.23487 -0.15105 -0.632224 3.44842 -1.94768 0.503264 -11.8723 0.0 0.0 0.0 0.0 0.0 
1346.32581001 711.151 -1571.53476807 -3.58307110848 21.3919656508 -0.959796137303 2.02554 0.465334 1.3639 2.0265 0.377612 1.39074 2.03573 0.128014 1.43538 2.03303 0.353077 1.39717 2.37083 2.61919 -5.89488 2.60253 9.57047 -6.34251 -0.0 0.0 -0.0 6.76706 -11.8722 12.8072 13.7529 20.5661 54.9122 1.4955 -36.5296 0.493595 -6.209 -0.259703 0.749644 8.21373 -25.3204 46.4851 -0.0 0.0 -0.0 8.99422 -4.12019 -17.4131 -17.763 -7.06723 -64.8877 0.28258 7.96876 -0.0196825 23.6425 -0.218733 2.99083 2.09073 13.7516 -8.23792 0.0 0.0 0.0 -8.2709 19.8623 -2.51118 -23.307 0.241731 3.54387 26.0675 -19.8869 -3.85439 5.44619 -0.0 -0.0 -0.0 0.0 -0.0 25.6767 -2.68938 1.39104 -3.83613 -0.138828 -0.572251 5.21813 -0.38642 0.760126 -11.0461 0.0 0.0 0.0 0.0 0.0 
1333.64292664 716.398 -1602.60497563 -1.78787680509 21.3527233215 -0.802431650423 1.80291 0.373447 1.08993 1.80352 0.30334 1.11148 1.8095 0.0992855 1.14784 1.80777 0.279308 1.11776 1.46151 2.82607 -6.25666 1.71077 10.2071 -6.62591 -0.0 0.0 -0.0 6.53299 -10.0509 12.3989 9.34374 21.7295 56.7163 1.45832 -35.8424 0.471644 -6.08675 -0.253809 0.735166 8.0635 -23.6224 46.8259 -0.0 0.0 -0.0 9.58877 -2.71957 -18.6719 -16.938 -4.99093 -63.0322 0.247403 6.98728 -0.0151042 22.9783 -0.229523 2.90669 2.17325 12.8018 -9.22728 0.0 0.0 0.0 -7.42207 13.8289 -3.4135 -28.1084 0.111858 4.26906 26.3152 -17.5677 -3.81195 5.71592 -0.0 -0.0 -0.0 0.0 -0.0 23.4696 -3.61528 0.843614 -8.03003 -0.246386 -1.20673 9.13101 0.896318 1.31737 -9.73008 0.0 0.0 0.0 0.0 0.0 
1322.78844054 720.454 -1632.27396289 -0.312254510075 21.0673881091 -1.2306017103 1.60942 0.726683 0.990071 1.60972 0.662213 1.0343 1.62189 0.462528 1.1377 1.62065 0.636392 1.05038 0.152761 1.1125 -6.74524 0.3551 7.51458 -7.1733 -0.0 0.0 -0.0 6.68699 -6.90233 12.8441 6.38756 22.2548 57.5923 1.42005 -35.1225 0.449431 -6.66653 -0.282037 0.803722 8.51136 -25.4888 48.972 -0.0 0.0 -0.0 9.5001 -1.40291 -18.5638 -15.9841 -7.12461 -63.6982 0.237318 6.7051 -0.0139021 23.3638 -0.223379 2.95555 2.13552 12.1782 -9.24999 0.0 0.0 0.0 -5.33902 6.18735 -3.07358 -35.4888 -0.204987 5.35649 26.1433 -19.3331 -3.84558 4.70967 -0.0 -0.0 -0.0 0.0 -0.0 21.7202 -4.01498 0.770243 -11.8975 -0.304189 -1.79725 9.80846 -2.26859 1.40186 -12.0882 0.0 0.0 0.0 0.0 0.0 
1315.20962297 725.277 -1662.5408337 0.666520296908 21.873177098 -0.406169755174 1.41904 0.289997 0.640789 1.41924 0.248635 0.657943 1.42216 0.122039 0.692685 1.42157 0.229902 0.66472 1.21027 3.40765 -6.95376 1.52639 11.8026 -7.31815 -0.0 0.0 -0.0 6.49485 -4.06237 12.5281 2.87175 22.9199 58.5368 1.30549 -32.8892 0.385346 -7.06203 -0.301691 0.850323 8.38911 -24.7893 48.5943 -0.0 0.0 -0.0 9.76047 -0.392333 -19.1432 -16.9752 -4.9188 -63.2996 0.260061 7.34097 -0.016683 23.4404 -0.22212 2.96524 2.11498 11.322 -9.49158 0.0 0.0 0.0 -4.99185 -0.735603 -3.28113 -38.2291 -0.357967 5.74877 25.0445 -16.417 -3.62425 4.55683 -0.0 -0.0 -0.0 0.0 -0.0 18.9914 -3.64509 -0.517492 -13.8997 -0.318422 -2.1041 14.644 1.41054 2.07116 -11.6908 0.0 0.0 0.0 0.0 0.0 
1321.3331253 725.277 -1664.29067943 0.658272431403 20.009179434 -0.383096002278 1.41904 0.289997 0.640789 1.41924 0.248635 0.657943 1.42216 0.122039 0.692685 1.42157 0.229902 0.66472 1.21027 3.40765 -6.95376 1.52639 11.8026 -7.31815 -0.0 0.0 -0.0 6.49485 -4.06237 12.5281 2.87175 22.9199 58.5368 1.30549 -32.8892 0.385346 -7.06203 -0.301691 0.850323 8.38911 -24.7893 48.5943 -0.0 0.0 -0.0 9.76047 -0.392333 -19.1432 -16.9752 -4.9188 -63.2996 0.260061 7.34097 -0.016683 23.4404 -0.22212 2.96524 2.11498 11.322 -9.49158 0.0 0.0 0.0 -4.99185 -0.735603 -3.28113 -38.2291 -0.357967 5.74877 25.0445 -16.417 -3.62425 4.55683 -0.0 -0.0 -0.0 0.0 -0.0 18.9914 -3.64509 -0.517492 -13.8997 -0.318422 -2.1041 14.644 1.41054 2.07116 -11.6908 0.0 0.0 0.0 0.0 0.0 
1305.88265372 730.279 -1694.01276287 0.521992338921 24.4703457242 -0.376643966801 1.60596 0.396826 0.882026 1.60633 0.339898 0.905487 1.61181 0.16888 0.952318 1.61068 0.317155 0.913701 -1.73738 1.86034 -7.1161 -1.51524 9.02042 -7.29358 -0.0 0.0 -0.0 6.36236 -4.96642 12.2339 -0.21273 23.5345 59.5331 1.05879 -27.676 0.260814 -6.64114 -0.280786 0.800725 8.26151 -25.6904 46.5324 -0.0 0.0 -0.0 9.99482 1.92191 -19.7264 -12.5044 -5.83536 -62.8088 0.295993 8.34181 -0.0215853 22.9544 -0.229894 2.90366 2.34084 10.2058 -11.5356 0.0 0.0 0.0 -0.500191 -7.59359 -4.06182 -45.6108 -0.861746 6.76519 22.013 -19.1984 -3.31467 3.18853 -0.0 -0.0 -0.0 0.0 -0.0 17.6761 -5.48402 -0.580921 -15.2561 -0.321969 -2.31218 17.0069 -2.9146 2.36012 -12.5123 0.0 0.0 0.0 0.0 0.0 
1276.95693096 735.828 -1726.93741044 0.353218878193 31.5200712847 0.510484004658 1.79075 0.301637 0.69734 1.79098 0.256654 0.71512 1.79424 0.124164 0.749565 1.79353 0.240983 0.720551 -2.30776 1.30542 -8.09461 -2.0497 8.75144 -8.33928 -0.0 0.0 -0.0 6.62886 -2.54985 12.8295 -2.57748 23.8454 60.1889 0.666672 -18.2759 0.107238 -6.95173 -0.296177 0.83734 7.70923 -25.5154 42.0166 -0.0 0.0 -0.0 10.5104 5.54504 -20.9278 -9.23491 -4.55313 -60.966 0.402317 11.2714 -0.0397006 22.8621 -0.231311 2.89195 2.57387 10.0339 -13.2206 0.0 0.0 0.0 6.42496 -11.5988 -5.818 -49.502 -1.17908 7.27306 19.2674 -20.1194 -2.96913 1.84239 -0.0 -0.0 -0.0 0.0 -0.0 14.3794 -6.50015 -1.18056 -15.1613 -0.321881 -2.29764 19.7394 -5.08673 2.70007 -12.6385 0.0 0.0 0.0 0.0 0.0 
1286.45254544 735.828 -1730.32276806 0.345523876899 29.3734129584 0.525666727623 1.79075 0.301637 0.69734 1.79098 0.256654 0.71512 1.79424 0.124164 0.749565 1.79353 0.240983 0.720551 -2.30776 1.30542 -8.09461 -2.0497 8.75144 -8.33928 -0.0 0.0 -0.0 6.62886 -2.54985 12.8295 -2.57748 23.8454 60.1889 0.666672 -18.2759 0.107238 -6.95173 -0.296177 0.83734 7.70923 -25.5154 42.0166 -0.0 0.0 -0.0 10.5104 5.54504 -20.9278 -9.23491 -4.55313 -60.966 0.402317 11.2714 -0.0397006 22.8621 -0.231311 2.89195 2.57387 10.0339 -13.2206 0.0 0.0 0.0 6.42496 -11.5988 -5.818 -49.502 -1.17908 7.27306 19.2674 -20.1194 -2.96913 1.84239 -0.0 -0.0 -0.0 0.0 -0.0 14.3794 -6.50015 -1.18056 -15.1613 -0.321881 -2.29764 19.7394 -5.08673 2.70007 -12.6385 0.0 0.0 0.0 0.0 0.0 
1276.75990821 737.378 -1744.47773565 0.708784313529 32.6513839416 0.710398918082 1.73207 0.216627 0.539408 1.73221 0.181864 0.552099 1.73399 0.0792312 0.575855 1.73357 0.169181 0.556116 -2.51126 1.11538 -8.2095 -2.25332 8.47983 -8.46299 -0.0 0.0 -0.0 6.68799 -1.61365 12.9611 -4.07705 24.1352 61.4579 0.54474 -15.1017 0.0722086 -7.08321 -0.302753 0.852816 7.58034 -25.4382 41.0313 -0.0 0.0 -0.0 10.6355 6.66254 -21.2186 -8.57742 -4.23472 -59.7602 0.434457 12.146 -0.0462232 22.8182 -0.231978 2.88639 2.64615 10.0537 -13.7128 0.0 0.0 0.0 8.85344 -12.9219 -6.54644 -50.5912 -1.27405 7.41132 18.3033 -20.4237 -2.84271 1.43603 -0.0 -0.0 -0.0 0.0 -0.0 12.5698 -7.10572 -1.2335 -15.2452 -0.32196 -2.31051 20.6152 -5.83118 2.80732 -12.5879 0.0 0.0 0.0 0.0 0.0 
